<?xml version="1.0" standalone="no"?>
<!DOCTYPE svg PUBLIC "-//W3C//DTD SVG 20010904//EN"
 "http://www.w3.org/TR/2001/REC-SVG-20010904/DTD/svg10.dtd">
<svg version="1.0" xmlns="http://www.w3.org/2000/svg"
 width="512.000000pt" height="512.000000pt" viewBox="0 0 512.000000 512.000000"
 preserveAspectRatio="xMidYMid meet">

<g transform="translate(0.000000,512.000000) scale(0.100000,-0.100000)"
fill="#000000" stroke="none">
<path d="M2460 4669 c-280 -24 -549 -170 -727 -393 -81 -102 -165 -270 -200
-401 -26 -98 -26 -108 -31 -461 l-4 -362 -69 -25 c-176 -65 -307 -208 -354
-387 -12 -46 -15 -192 -15 -887 l0 -832 25 -78 c47 -148 154 -273 290 -338
132 -62 85 -60 1190 -60 952 0 1013 1 1070 18 157 48 289 153 358 284 69 133
67 96 67 1016 l0 828 -26 77 c-31 92 -98 197 -162 252 -50 42 -152 100 -214
119 l-36 12 -4 362 c-5 354 -5 364 -31 462 -69 259 -239 494 -456 633 -131 84
-314 148 -454 157 -45 4 -91 7 -102 9 -11 2 -63 -1 -115 -5z m275 -354 c96
-24 233 -97 303 -160 98 -89 166 -193 213 -325 22 -62 23 -80 27 -418 l3 -352
-723 2 -723 3 0 330 c0 285 2 339 18 395 77 282 311 495 596 540 73 12 210 4
286 -15z m850 -1604 c51 -23 107 -85 129 -142 15 -40 16 -116 14 -829 -3 -732
-4 -787 -21 -821 -25 -51 -74 -99 -127 -123 -45 -21 -51 -21 -1025 -21 l-980
0 -54 30 c-59 32 -96 75 -117 132 -10 31 -13 192 -14 814 0 843 -1 821 55 895
13 17 48 44 77 58 l52 26 985 0 c932 0 988 -1 1026 -19z"/>
<path d="M2471 2113 c-64 -23 -126 -89 -145 -154 -28 -94 -18 -163 34 -230
l28 -36 4 -194 c3 -183 4 -196 27 -232 57 -92 188 -102 262 -21 42 47 49 84
49 271 l0 173 29 41 c89 122 49 300 -83 368 -60 31 -143 37 -205 14z"/>
</g>
</svg>
